<?xml version="1.0" standalone="no"?>
<!DOCTYPE svg PUBLIC "-//W3C//DTD SVG 20010904//EN"
 "http://www.w3.org/TR/2001/REC-SVG-20010904/DTD/svg10.dtd">
<svg version="1.0" xmlns="http://www.w3.org/2000/svg"
 width="512.000000pt" height="512.000000pt" viewBox="0 0 512.000000 512.000000"
 preserveAspectRatio="xMidYMid meet">
<metadata>
Created by potrace 1.11, written by Peter Selinger 2001-2013
</metadata>
<g transform="translate(0.000000,512.000000) scale(0.100000,-0.100000)"
fill="#000000" stroke="none">
<path d="M2398 5115 c-2 -1 -40 -6 -85 -9 -46 -4 -93 -9 -105 -11 -12 -3 -40
-7 -63 -10 -126 -19 -344 -76 -465 -122 -36 -14 -78 -30 -95 -37 -86 -32 -317
-155 -421 -224 -199 -131 -333 -245 -509 -436 -26 -28 -145 -176 -179 -224
-106 -147 -219 -356 -290 -534 -37 -96 -84 -235 -92 -274 -1 -6 -11 -49 -22
-95 -19 -77 -24 -106 -38 -194 -32 -208 -36 -513 -9 -690 5 -33 14 -97 20
-135 36 -250 175 -621 322 -860 89 -145 98 -159 103 -160 3 0 157 152 343 338
l338 338 -45 85 c-74 138 -158 370 -180 494 -3 17 -10 53 -15 82 -34 178 -32
496 5 653 3 14 7 37 9 52 2 15 9 46 15 70 7 24 14 50 15 58 2 8 13 42 25 75
11 33 22 65 24 70 24 80 119 270 183 369 132 203 298 378 488 515 69 50 249
161 259 161 3 0 37 15 78 34 223 105 503 167 758 169 94 1 252 -9 300 -18 13
-3 42 -7 65 -10 173 -25 373 -98 636 -233 3 -1 63 55 133 125 l127 127 -98 63
c-262 169 -630 315 -903 358 -25 4 -52 9 -60 10 -9 2 -43 6 -75 10 -33 4 -69
9 -80 12 -22 5 -412 12 -417 8z"/>
<path d="M2727 4124 c-1 -1 -33 -5 -70 -8 -37 -3 -87 -10 -110 -15 -23 -6 -53
-12 -67 -14 -39 -7 -178 -56 -248 -88 -168 -75 -331 -198 -465 -349 -54 -61
-162 -222 -191 -285 -108 -233 -140 -376 -140 -620 0 -142 5 -190 30 -293 8
-37 17 -71 18 -77 8 -35 45 -132 78 -204 125 -274 378 -528 651 -656 90 -42
195 -82 237 -90 12 -2 29 -6 38 -9 75 -23 171 -31 342 -30 151 1 176 3 294 33
374 94 666 310 864 641 28 46 49 86 47 88 -2 2 -125 4 -275 4 l-271 -1 -64
-59 c-183 -171 -395 -252 -643 -247 -178 5 -328 51 -476 149 -305 201 -457
550 -396 910 9 56 22 112 29 124 6 12 10 22 7 22 -3 0 9 30 26 68 150 330 476
543 833 543 231 0 453 -89 628 -253 l58 -55 270 0 c193 0 269 4 269 12 0 6
-13 32 -30 58 -16 26 -30 50 -30 53 0 19 -153 204 -225 272 -220 208 -484 331
-795 368 -43 6 -219 12 -223 8z"/>
<path d="M4518 3931 c-65 -65 -118 -121 -118 -124 0 -3 21 -40 46 -83 123
-209 208 -448 247 -702 18 -119 19 -410 2 -522 -21 -138 -27 -163 -70 -320 -4
-14 -37 -103 -65 -175 -21 -56 -103 -210 -148 -280 -102 -159 -285 -364 -417
-467 -223 -173 -553 -332 -775 -372 -14 -2 -36 -7 -50 -10 -93 -22 -204 -31
-375 -31 -138 0 -279 9 -308 20 -7 3 -25 7 -42 9 -172 21 -502 149 -653 251
-20 14 -41 25 -47 25 -5 0 -158 -149 -340 -330 -314 -314 -328 -330 -310 -345
81 -62 312 -191 455 -254 64 -28 279 -105 329 -117 9 -2 34 -8 56 -14 33 -8
118 -26 210 -44 20 -4 72 -10 175 -22 79 -9 369 -10 474 -1 86 8 312 44 326
52 4 2 22 7 41 10 115 20 399 123 539 195 242 125 462 283 645 464 109 108
153 157 259 291 36 45 133 192 175 265 49 87 156 311 167 350 2 8 22 69 44
135 22 66 43 132 45 147 3 14 14 64 25 110 10 46 22 106 25 133 3 28 7 61 10
75 15 78 23 464 11 530 -3 14 -7 54 -10 90 -4 36 -9 77 -12 90 -3 14 -7 36 -9
50 -18 103 -28 148 -36 170 -5 14 -12 36 -14 50 -16 87 -105 325 -174 463 -53
106 -162 291 -194 329 l-22 26 -117 -117z"/>
<path d="M2883 2979 c-100 -21 -153 -96 -149 -215 2 -76 29 -130 84 -169 l44
-30 586 0 c585 0 587 0 622 22 69 43 98 106 94 204 -3 85 -35 138 -105 175
-31 16 -77 18 -591 18 -306 1 -570 -2 -585 -5z"/>
</g>
</svg>
