<?xml version="1.0" encoding="utf-8"?>
<!-- Generator: Adobe Illustrator 16.0.0, SVG Export Plug-In . SVG Version: 6.00 Build 0)  -->
<!DOCTYPE svg PUBLIC "-//W3C//DTD SVG 1.1//EN" "http://www.w3.org/Graphics/SVG/1.1/DTD/svg11.dtd">
<svg version="1.1" id="圖層_1" xmlns="http://www.w3.org/2000/svg" xmlns:xlink="http://www.w3.org/1999/xlink" x="0px" y="0px"
	 width="184px" height="184px" viewBox="0 0 184 184" enable-background="new 0 0 184 184" xml:space="preserve">
<g>
	<path fill="#485FAC" d="M88.194,90.024V73.212H77.033v16.812h2.12v-5.651h6.922v5.651H88.194z M79.153,75.332h6.922v6.922h-6.922
		V75.332z"/>
	<path fill="#485FAC" d="M101.757,73.212H90.596v16.812h2.119v-5.651h9.042V73.212z M99.637,82.254h-6.922v-6.922h6.922V82.254z"/>
	<polygon fill="#485FAC" points="109.809,75.332 109.809,73.212 103.027,73.212 103.027,75.332 105.288,75.332 105.288,87.905 
		103.027,87.905 103.027,90.024 109.809,90.024 109.809,87.905 107.407,87.905 107.407,75.332 	"/>
	<rect x="79.929" y="99.684" fill="#485FAC" width="3.035" height="2.848"/>
	<rect x="86" y="99.684" fill="#485FAC" width="3.036" height="2.848"/>
	<rect x="92.071" y="99.684" fill="#485FAC" width="3.036" height="2.848"/>
	<g>
		<path fill="#485FAC" d="M133.555,75.53l-0.321-0.131h-3.216V89.06h-6.261V75.399h-3.026l-0.322,0.131
			c-4.313,2.393-7.039,6.918-7.039,11.846c0,5.23,2.987,9.888,7.541,12.158v6.223H46.346V56.995c0-0.052,0.138,0,0.189,0H128.5
			c0.052,0,0-0.052,0,0v15.179h2.846V56.995c0-1.623-1.225-2.846-2.846-2.846H46.536c-1.622,0-3.036,1.224-3.036,2.846v57.679
			c0,1.621,1.414,3.035,3.036,3.035h31.875v9.297h-6.071v2.846h30.357v-2.846h-6.261v-9.297h21.439v-2.846H46.536
			c-0.051,0-0.189-0.137-0.189-0.189v-6.072h74.564v18.215c0,1.621,1.414,3.035,3.036,3.035h6.071c1.621,0,2.846-1.414,2.846-3.035
			V99.533c4.743-2.27,7.637-6.927,7.637-12.158C140.5,82.448,137.868,77.923,133.555,75.53 M93.589,127.006H81.257v-9.297h12.332
			V127.006z M130.953,97.293l-0.936,0.359v29.164c0,0.053,0.053,0.189,0,0.189h-6.071c-0.052,0-0.189-0.137-0.189-0.189V97.652
			l-0.842-0.359c-4.07-1.648-6.724-5.549-6.724-9.941c0-3.587,1.873-6.919,4.719-8.901v11.178c0,1.204,1.074,2.277,2.277,2.277
			h7.589c1.203,0,2.087-1.074,2.087-2.277V78.451c3.036,1.982,4.767,5.314,4.767,8.901C137.63,91.744,135.024,95.645,130.953,97.293
			"/>
		<path fill="#485FAC" d="M62.213,94.289c0.256,0.09,0.536,0.09,0.792,0c6.192-2.189,10.333-8.042,10.334-14.608
			c0.007-2.244-0.478-4.462-1.421-6.499c-0.208-0.448-0.67-0.722-1.164-0.688c-2.631,0.194-5.26-0.403-7.549-1.713
			c-0.37-0.213-0.823-0.213-1.192,0c-2.262,1.344-4.891,1.94-7.511,1.705c-0.505-0.049-0.987,0.225-1.202,0.685
			c-1.823,3.961-1.895,8.507-0.199,12.524C54.796,89.712,58.103,92.832,62.213,94.289 M55.149,74.912
			c2.592,0.044,5.154-0.553,7.46-1.739c2.305,1.182,4.865,1.779,7.455,1.739c2.619,6.748-0.715,14.342-7.455,16.981
			C55.873,89.25,52.539,81.661,55.149,74.912"/>
		<path fill="#485FAC" d="M61.417,85.642c0.316,0,0.619-0.125,0.843-0.349l5.961-5.961l-1.686-1.686l-5.118,5.118l-1.542-1.542
			l-1.686,1.686l2.385,2.385C60.797,85.516,61.101,85.642,61.417,85.642"/>
	</g>
</g>
</svg>
