<?xml version="1.0" encoding="utf-8"?>
<!-- Generator: Adobe Illustrator 16.0.0, SVG Export Plug-In . SVG Version: 6.00 Build 0)  -->
<!DOCTYPE svg PUBLIC "-//W3C//DTD SVG 1.1//EN" "http://www.w3.org/Graphics/SVG/1.1/DTD/svg11.dtd">
<svg version="1.1" id="圖層_1" xmlns="http://www.w3.org/2000/svg" xmlns:xlink="http://www.w3.org/1999/xlink" x="0px" y="0px"
	 width="184px" height="184px" viewBox="0 0 184 184" enable-background="new 0 0 184 184" xml:space="preserve">
<g>
	<path fill="#339ED8" d="M68.207,91.19v29.711c-3.078,1.092-5.288,4.03-5.288,7.477v7.932h58.161v-7.932
		c0-3.446-2.21-6.385-5.287-7.477V91.19c0-13.119-10.674-23.793-23.793-23.793S68.207,78.071,68.207,91.19 M115.793,131.022H68.207
		v-2.645c0-1.457,1.186-2.644,2.644-2.644h42.299c1.457,0,2.644,1.187,2.644,2.644V131.022z M92,72.685
		c10.204,0,18.506,8.301,18.506,18.505v29.257H73.494V91.19C73.494,80.986,81.796,72.685,92,72.685"/>
	<path fill="#339ED8" d="M68.207,91.19v29.711c-3.078,1.092-5.288,4.03-5.288,7.477v7.932h58.161v-7.932
		c0-3.446-2.21-6.385-5.287-7.477V91.19c0-13.119-10.674-23.793-23.793-23.793S68.207,78.071,68.207,91.19z M115.793,131.022H68.207
		v-2.645c0-1.457,1.186-2.644,2.644-2.644h42.299c1.457,0,2.644,1.187,2.644,2.644V131.022z M92,72.685
		c10.204,0,18.506,8.301,18.506,18.505v29.257H73.494V91.19C73.494,80.986,81.796,72.685,92,72.685z"/>
	<rect x="88.916" y="82.819" fill="#339ED8" width="6.168" height="16.744"/>
	<path fill="#339ED8" d="M94.644,99.122h-5.287V83.26h5.287V99.122z M95.525,82.378h-0.882h-5.287h-0.881v0.881v15.862v0.881h0.881
		h5.287h0.882v-0.881V83.26V82.378z"/>
	<rect x="88.916" y="103.969" fill="#339ED8" width="6.168" height="6.168"/>
	<path fill="#339ED8" d="M94.644,109.696h-5.287v-5.287h5.287V109.696z M95.525,103.527h-0.882h-5.287h-0.881v0.882v5.287v0.881
		h0.881h5.287h0.882v-0.881v-5.287V103.527z"/>
	<rect x="46.44" y="88.106" fill="#339ED8" width="11.632" height="6.169"/>
	<path fill="#339ED8" d="M57.632,93.834H46.881v-5.287h10.751V93.834z M58.513,87.666h-0.881H46.881H46v0.881v5.287v0.882h0.881
		h10.751h0.881v-0.882v-5.287V87.666z"/>
	<rect x="125.927" y="88.106" fill="#339ED8" width="11.633" height="6.169"/>
	<path fill="#339ED8" d="M137.119,93.834h-10.751v-5.287h10.751V93.834z M138,87.666h-0.881h-10.751h-0.882v0.881v5.287v0.882h0.882
		h10.751H138v-0.882v-5.287V87.666z"/>
	
		<rect x="117.396" y="57.862" transform="matrix(-0.7071 -0.7071 0.7071 -0.7071 160.2676 192.6843)" fill="#339ED8" width="5.288" height="10.574"/>
	
		<rect x="117.396" y="57.862" transform="matrix(-0.7071 -0.7071 0.7071 -0.7071 160.2676 192.6843)" fill="#339ED8" width="5.288" height="10.574"/>
	
		<rect x="58.672" y="60.507" transform="matrix(0.7071 0.7071 -0.7071 0.7071 63.3874 -26.7299)" fill="#339ED8" width="10.575" height="5.287"/>
	
		<rect x="58.672" y="60.507" transform="matrix(0.7071 0.7071 -0.7071 0.7071 63.3874 -26.7299)" fill="#339ED8" width="10.575" height="5.287"/>
	<rect x="88.916" y="45.631" fill="#339ED8" width="6.168" height="11.632"/>
	<path fill="#339ED8" d="M94.644,56.823h-5.287V46.072h5.287V56.823z M95.525,45.19h-0.882h-5.287h-0.881v0.881v10.751v0.881h0.881
		h5.287h0.882v-0.881V46.072V45.19z"/>
</g>
</svg>
