<?xml version="1.0" encoding="utf-8"?>
<!-- Generator: Adobe Illustrator 16.0.0, SVG Export Plug-In . SVG Version: 6.00 Build 0)  -->
<!DOCTYPE svg PUBLIC "-//W3C//DTD SVG 1.1//EN" "http://www.w3.org/Graphics/SVG/1.1/DTD/svg11.dtd">
<svg version="1.1" id="圖層_1" xmlns="http://www.w3.org/2000/svg" xmlns:xlink="http://www.w3.org/1999/xlink" x="0px" y="0px"
	 width="184px" height="184px" viewBox="0 0 184 184" enable-background="new 0 0 184 184" xml:space="preserve">
<g>
	<g>
		<path fill="#1C7DAC" d="M133.398,70.533H85.866V69c-0.008-1.943-1.235-3.67-3.066-4.318v-3.63
			c1.831-0.647,3.058-2.376,3.066-4.318v-6.134c0-2.54-2.059-4.6-4.6-4.6H50.6c-2.54,0-4.6,2.06-4.6,4.6v6.134
			c0.008,1.942,1.235,3.67,3.067,4.318v3.63C47.235,65.33,46.008,67.058,46,69v6.134c0.008,1.942,1.235,3.67,3.067,4.317v3.631
			C47.235,83.729,46.008,85.458,46,87.4v6.133c0,2.541,2.06,4.601,4.6,4.601h7.667v19.656c-0.068,2.614,1.987,4.793,4.6,4.876
			h26.652l-3.067,6.134h-5.186c-2.54,0-4.6,2.059-4.6,4.6v3.066c0,0.847,0.687,1.533,1.533,1.533h39.866
			c0.847,0,1.532-0.687,1.532-1.533v-3.066c0-2.541-2.059-4.6-4.6-4.6h-5.186l-3.066-6.134h26.652
			c2.612-0.083,4.669-2.262,4.6-4.876V75.41C138.067,72.796,136.011,70.618,133.398,70.533 M52.134,61.334h27.599v3.067H52.134
			V61.334z M49.067,50.601c0-0.847,0.686-1.533,1.533-1.533h30.666c0.847,0,1.534,0.686,1.534,1.533v6.134
			c0,0.847-0.687,1.533-1.534,1.533H50.6c-0.847,0-1.533-0.686-1.533-1.533V50.601z M49.067,69c0-0.847,0.686-1.533,1.533-1.533
			h30.666c0.847,0,1.534,0.686,1.534,1.533v6.134c0,0.846-0.687,1.533-1.534,1.533H50.6c-0.847,0-1.533-0.687-1.533-1.533V69z
			 M52.134,79.734h27.599v3.067H52.134V79.734z M49.067,93.533V87.4c0-0.847,0.686-1.534,1.533-1.534h30.666
			c0.847,0,1.534,0.687,1.534,1.534v6.133c0,0.847-0.687,1.533-1.534,1.533H50.6C49.753,95.066,49.067,94.38,49.067,93.533
			 M116.531,133.399v1.533H79.733v-1.533c0-0.847,0.686-1.534,1.533-1.534h33.732C115.846,131.865,116.531,132.553,116.531,133.399
			 M106.384,128.8H89.88l3.067-6.134h10.371L106.384,128.8z M133.398,119.6H62.866c-0.914-0.095-1.59-0.894-1.533-1.81v-4.323
			h61.332c0.847,0,1.533-0.688,1.533-1.534s-0.687-1.533-1.533-1.533H61.333V98.134h19.933c2.541,0,4.6-2.06,4.6-4.601V87.4
			c-0.008-1.943-1.235-3.671-3.066-4.318v-3.631c1.831-0.646,3.058-2.375,3.066-4.317V73.6h47.533
			c0.913,0.095,1.59,0.893,1.532,1.81v34.989h-6.132c-0.848,0-1.534,0.687-1.534,1.533s0.687,1.534,1.534,1.534h6.132v4.323
			C134.988,118.706,134.312,119.505,133.398,119.6"/>
	</g>
	<g>
		<path fill="#1C7DAC" d="M53.667,55.2H59.8c0.846,0,1.533-0.686,1.533-1.533c0-0.847-0.687-1.533-1.533-1.533h-6.134
			c-0.847,0-1.533,0.686-1.533,1.533C52.134,54.514,52.82,55.2,53.667,55.2"/>
		<path fill="#1C7DAC" d="M53.667,73.6H59.8c0.846,0,1.533-0.686,1.533-1.533c0-0.847-0.687-1.534-1.533-1.534h-6.134
			c-0.847,0-1.533,0.687-1.533,1.534C52.134,72.914,52.82,73.6,53.667,73.6"/>
		<path fill="#1C7DAC" d="M61.333,90.467c0-0.847-0.687-1.534-1.533-1.534h-6.134c-0.847,0-1.533,0.687-1.533,1.534
			c0,0.846,0.686,1.533,1.533,1.533H59.8C60.646,92,61.333,91.313,61.333,90.467"/>
		<path fill="#1C7DAC" d="M79.733,53.667c0,0.847-0.687,1.533-1.534,1.533c-0.846,0-1.533-0.686-1.533-1.533
			c0-0.847,0.687-1.533,1.533-1.533C79.046,52.135,79.733,52.82,79.733,53.667"/>
		<path fill="#1C7DAC" d="M79.733,72.067c0,0.847-0.687,1.533-1.534,1.533c-0.846,0-1.533-0.686-1.533-1.533
			c0-0.847,0.687-1.534,1.533-1.534C79.046,70.533,79.733,71.22,79.733,72.067"/>
		<path fill="#1C7DAC" d="M79.733,90.467c0,0.846-0.687,1.533-1.534,1.533c-0.846,0-1.533-0.687-1.533-1.533
			c0-0.847,0.687-1.534,1.533-1.534C79.046,88.933,79.733,89.62,79.733,90.467"/>
		<path fill="#1C7DAC" d="M131.155,76.907c-0.344-0.219-0.76-0.292-1.157-0.204c-0.396,0.089-0.743,0.331-0.961,0.675l-9.621,15.121
			l-7.854-9.163c-0.313-0.363-0.778-0.56-1.258-0.529c-0.479,0.03-0.916,0.283-1.181,0.682l-11.617,17.42l-8.088-2.697
			c-0.329-0.109-0.684-0.104-1.009,0.015l-16.868,6.134c-0.514,0.187-0.889,0.634-0.985,1.174c-0.095,0.539,0.105,1.089,0.524,1.441
			c0.42,0.352,0.995,0.454,1.51,0.267l16.364-5.951l8.693,2.898c0.656,0.218,1.377-0.029,1.761-0.604l11.144-16.712l7.883,9.2
			c0.316,0.366,0.787,0.563,1.271,0.528s0.922-0.296,1.183-0.704l10.733-16.866c0.221-0.343,0.296-0.76,0.209-1.159
			C131.742,77.473,131.499,77.125,131.155,76.907"/>
		<path fill="#1C7DAC" d="M90.466,105.8c0,0.847-0.687,1.533-1.534,1.533c-0.847,0-1.533-0.687-1.533-1.533s0.686-1.533,1.533-1.533
			C89.779,104.267,90.466,104.953,90.466,105.8"/>
		<path fill="#1C7DAC" d="M111.932,105.8c0,0.847-0.687,1.533-1.533,1.533s-1.533-0.687-1.533-1.533s0.687-1.533,1.533-1.533
			S111.932,104.953,111.932,105.8"/>
		<path fill="#1C7DAC" d="M111.932,99.667c0,0.847-0.687,1.532-1.533,1.532s-1.533-0.686-1.533-1.532
			c0-0.848,0.687-1.533,1.533-1.533S111.932,98.819,111.932,99.667"/>
		<path fill="#1C7DAC" d="M111.932,93.533c0,0.847-0.687,1.533-1.533,1.533s-1.533-0.687-1.533-1.533
			c0-0.846,0.687-1.533,1.533-1.533S111.932,92.688,111.932,93.533"/>
		<path fill="#1C7DAC" d="M131.864,105.8c0,0.847-0.686,1.533-1.533,1.533c-0.847,0-1.532-0.687-1.532-1.533
			s0.686-1.533,1.532-1.533C131.179,104.267,131.864,104.953,131.864,105.8"/>
		<path fill="#1C7DAC" d="M131.864,99.667c0,0.847-0.686,1.532-1.533,1.532c-0.847,0-1.532-0.686-1.532-1.532
			c0-0.848,0.686-1.533,1.532-1.533C131.179,98.134,131.864,98.819,131.864,99.667"/>
		<path fill="#1C7DAC" d="M131.864,93.533c0,0.847-0.686,1.533-1.533,1.533c-0.847,0-1.532-0.687-1.532-1.533
			c0-0.846,0.686-1.533,1.532-1.533C131.179,92,131.864,92.688,131.864,93.533"/>
		<path fill="#1C7DAC" d="M131.864,87.4c0,0.847-0.686,1.533-1.533,1.533c-0.847,0-1.532-0.686-1.532-1.533
			c0-0.847,0.686-1.534,1.532-1.534C131.179,85.866,131.864,86.553,131.864,87.4"/>
		<path fill="#1C7DAC" d="M90.466,79.734h3.065c0.848,0,1.534-0.687,1.534-1.534c0-0.846-0.687-1.533-1.534-1.533h-3.065
			c-0.847,0-1.534,0.687-1.534,1.533C88.933,79.047,89.619,79.734,90.466,79.734"/>
		<path fill="#1C7DAC" d="M99.665,79.734h12.267c0.847,0,1.534-0.687,1.534-1.534c0-0.846-0.688-1.533-1.534-1.533H99.665
			c-0.847,0-1.532,0.687-1.532,1.533C98.133,79.047,98.818,79.734,99.665,79.734"/>
		<path fill="#1C7DAC" d="M90.466,85.866h7.667c0.846,0,1.532-0.686,1.532-1.533s-0.687-1.533-1.532-1.533h-7.667
			c-0.847,0-1.534,0.686-1.534,1.533S89.619,85.866,90.466,85.866"/>
	</g>
</g>
</svg>
