<?xml version="1.0" encoding="utf-8"?>
<!-- Generator: Adobe Illustrator 16.0.0, SVG Export Plug-In . SVG Version: 6.00 Build 0)  -->
<!DOCTYPE svg PUBLIC "-//W3C//DTD SVG 1.1//EN" "http://www.w3.org/Graphics/SVG/1.1/DTD/svg11.dtd">
<svg version="1.1" id="圖層_1" xmlns="http://www.w3.org/2000/svg" xmlns:xlink="http://www.w3.org/1999/xlink" x="0px" y="0px"
	 width="184px" height="184px" viewBox="0 0 184 184" enable-background="new 0 0 184 184" xml:space="preserve">
<g>
	<rect x="58.069" y="94.827" fill="#39588F" width="2.828" height="2.828"/>
	<rect x="63.724" y="94.827" fill="#39588F" width="2.828" height="2.828"/>
	<rect x="69.379" y="94.827" fill="#39588F" width="2.828" height="2.828"/>
	<rect x="58.069" y="110.379" fill="#39588F" width="2.828" height="2.828"/>
	<rect x="63.724" y="110.379" fill="#39588F" width="2.828" height="2.828"/>
	<rect x="69.379" y="110.379" fill="#39588F" width="2.828" height="2.828"/>
	<rect x="58.069" y="125.931" fill="#39588F" width="2.828" height="2.827"/>
	<rect x="63.724" y="125.931" fill="#39588F" width="2.828" height="2.827"/>
	<rect x="69.379" y="125.931" fill="#39588F" width="2.828" height="2.827"/>
	<g>
		<path fill="#39588F" d="M116.941,78.113l2.11,1.642l-4.795,6.165l-8.826-5.044c-0.589-0.336-1.334-0.207-1.774,0.309l-8.483,9.896
			l2.148,1.836l7.722-9.008l8.883,5.075c0.611,0.35,1.387,0.197,1.818-0.358l5.549-7.135l2.11,1.642l1.113-8.1L116.941,78.113z"/>
		<rect x="65.138" y="70.793" fill="#39588F" width="8.483" height="2.828"/>
		<rect x="77.862" y="70.793" fill="#39588F" width="8.482" height="2.828"/>
		<rect x="65.138" y="76.448" fill="#39588F" width="12.724" height="2.828"/>
		<rect x="80.689" y="76.448" fill="#39588F" width="5.655" height="2.828"/>
		<path fill="#39588F" d="M123.103,64.827V51c0-0.78-0.633-1.414-1.414-1.414H73.621c-0.375,0.002-0.735,0.15-1.004,0.409
			L58.479,64.134c-0.259,0.27-0.407,0.63-0.41,1.004v24.034h-5.655c-0.78,0-1.414,0.633-1.414,1.414v11.31
			c0,0.78,0.633,1.414,1.414,1.414h1.414v1.413h-1.414c-0.78,0-1.414,0.634-1.414,1.414v11.311c0,0.78,0.633,1.413,1.414,1.413
			h1.414v1.414h-1.414c-0.78,0-1.414,0.634-1.414,1.414V133c0,0.78,0.633,1.413,1.414,1.413h42.414c0.78,0,1.414-0.633,1.414-1.413
			v-4.242h8.482c0,3.123,2.532,5.655,5.655,5.655s5.655-2.532,5.655-5.655h5.654c0.781,0,1.414-0.633,1.414-1.413v-25.137
			c6.19-4.207,9.897-11.206,9.897-18.69C133,76.032,129.293,69.034,123.103,64.827 M72.207,54.408v9.317H62.89L72.207,54.408z
			 M60.896,66.552h12.724c0.78,0,1.414-0.634,1.414-1.414V52.414h45.241v10.788c-7.005-3.433-15.286-3.008-21.902,1.126
			c-6.615,4.133-10.629,11.389-10.615,19.19c0.004,1.91,0.255,3.811,0.749,5.655H60.896V66.552z M53.828,92h35.598
			c0.958,2.354,2.305,4.528,3.987,6.433v2.05H53.828V92z M90.586,104.724H56.655v-1.413h33.931V104.724z M53.828,107.552h39.585
			v8.482H53.828V107.552z M90.586,120.275H56.655v-1.414h33.931V120.275z M93.413,131.586H53.828v-8.482h39.585V131.586z
			 M106.138,108.965c-0.781,0-1.414,0.634-1.414,1.414v15.552h-8.482v-4.241c0-0.78-0.634-1.414-1.414-1.414h-1.414v-1.414h1.414
			c0.78,0,1.414-0.633,1.414-1.413v-11.311c0-0.78-0.634-1.414-1.414-1.414h-1.414v-1.413h1.414c0.78,0,1.414-0.634,1.414-1.414
			v-0.749c2.873,2.313,6.271,3.887,9.896,4.581V108.965z M113.206,128.758c0,1.563-1.266,2.828-2.827,2.828
			c-1.563,0-2.828-1.266-2.828-2.828v-7.068h5.655V128.758z M113.206,118.861h-5.655v-1.413h5.655V118.861z M113.206,114.62h-5.655
			v-2.827h5.655V114.62z M108.965,108.965v-2.897c0.467,0.028,0.934,0.07,1.414,0.07s0.947-0.042,1.413-0.07v2.897H108.965z
			 M120.275,125.931h-4.241v-15.552c0-0.78-0.634-1.414-1.414-1.414v-3.236c1.96-0.38,3.862-1.017,5.655-1.896V125.931z
			 M110.379,103.311c-8.006,0-15.224-4.822-18.286-12.219c-3.064-7.396-1.371-15.91,4.29-21.57c5.66-5.661,14.175-7.354,21.57-4.29
			c7.396,3.063,12.219,10.28,12.219,18.286C130.159,94.443,121.305,103.298,110.379,103.311"/>
	</g>
</g>
</svg>
