<?xml version="1.0" encoding="utf-8"?>
<!-- Generator: Adobe Illustrator 16.0.0, SVG Export Plug-In . SVG Version: 6.00 Build 0)  -->
<!DOCTYPE svg PUBLIC "-//W3C//DTD SVG 1.1//EN" "http://www.w3.org/Graphics/SVG/1.1/DTD/svg11.dtd">
<svg version="1.1" id="圖層_1" xmlns="http://www.w3.org/2000/svg" xmlns:xlink="http://www.w3.org/1999/xlink" x="0px" y="0px"
	 width="184px" height="184px" viewBox="0 0 184 184" enable-background="new 0 0 184 184" xml:space="preserve">
<g>
	<g>
		<path fill="#202E61" d="M52.8,70.767h1.633c0.902,0,1.633-0.731,1.633-1.633c0-0.902-0.731-1.633-1.633-1.633H52.8
			c-0.902,0-1.633,0.731-1.633,1.633C51.167,70.036,51.898,70.767,52.8,70.767"/>
		<path fill="#202E61" d="M60.966,70.767H62.6c0.902,0,1.633-0.731,1.633-1.633c0-0.902-0.731-1.633-1.633-1.633h-1.634
			c-0.902,0-1.633,0.731-1.633,1.633C59.333,70.036,60.064,70.767,60.966,70.767"/>
		<path fill="#202E61" d="M69.133,70.767h1.633c0.902,0,1.633-0.731,1.633-1.633c0-0.902-0.731-1.633-1.633-1.633h-1.633
			c-0.902,0-1.633,0.731-1.633,1.633C67.5,70.036,68.231,70.767,69.133,70.767"/>
		<path fill="#202E61" d="M93.633,70.767h6.534c0.901,0,1.633-0.731,1.633-1.633c0-0.902-0.731-1.633-1.633-1.633h-6.534
			C92.731,67.5,92,68.231,92,69.134C92,70.036,92.731,70.767,93.633,70.767"/>
		<path fill="#202E61" d="M52.8,93.633h1.633c0.902,0,1.633-0.73,1.633-1.632c0-0.902-0.731-1.633-1.633-1.633H52.8
			c-0.902,0-1.633,0.731-1.633,1.633C51.167,92.902,51.898,93.633,52.8,93.633"/>
		<path fill="#202E61" d="M60.966,93.633H62.6c0.902,0,1.633-0.73,1.633-1.632c0-0.902-0.731-1.633-1.633-1.633h-1.634
			c-0.902,0-1.633,0.731-1.633,1.633C59.333,92.902,60.064,93.633,60.966,93.633"/>
		<path fill="#202E61" d="M69.133,93.633h1.633c0.902,0,1.633-0.73,1.633-1.632c0-0.902-0.731-1.633-1.633-1.633h-1.633
			c-0.902,0-1.633,0.731-1.633,1.633C67.5,92.902,68.231,93.633,69.133,93.633"/>
		<path fill="#202E61" d="M54.433,113.234H52.8c-0.902,0-1.633,0.73-1.633,1.633s0.731,1.633,1.633,1.633h1.633
			c0.902,0,1.633-0.73,1.633-1.633S55.335,113.234,54.433,113.234"/>
		<path fill="#202E61" d="M62.6,113.234h-1.634c-0.902,0-1.633,0.73-1.633,1.633s0.731,1.633,1.633,1.633H62.6
			c0.902,0,1.633-0.73,1.633-1.633S63.502,113.234,62.6,113.234"/>
		<path fill="#202E61" d="M70.767,113.234h-1.633c-0.902,0-1.633,0.73-1.633,1.633s0.731,1.633,1.633,1.633h1.633
			c0.902,0,1.633-0.73,1.633-1.633S71.668,113.234,70.767,113.234"/>
		<path fill="#202E61" d="M100.167,113.234h-6.534c-0.901,0-1.633,0.73-1.633,1.633s0.731,1.633,1.633,1.633h6.534
			c0.901,0,1.633-0.73,1.633-1.633S101.068,113.234,100.167,113.234"/>
		<path fill="#202E61" d="M109.967,124.666c2.705-0.002,4.896-2.193,4.899-4.898v-2.109l1.561,1.234
			c1.482,1.156,3.562,1.156,5.043,0l6.727-5.322c7.955-6.051,12.678-15.428,12.804-25.42V77.752c0-1.386-0.799-2.648-2.052-3.241
			l-17.461-8.472c-1.604-0.77-3.473-0.769-5.077,0.002l-1.544,0.749v-2.556c-0.003-2.705-2.194-4.897-4.899-4.9H47.9
			c-2.705,0.003-4.897,2.195-4.9,4.9v9.8c0.003,2.705,2.195,4.897,4.9,4.9h0.957l3.267,3.267H47.9c-2.705,0.003-4.897,2.195-4.9,4.9
			v9.8c0.003,2.705,2.195,4.896,4.9,4.9h0.957l3.267,3.266H47.9c-2.705,0.004-4.897,2.195-4.9,4.9v9.801
			c0.003,2.705,2.195,4.896,4.9,4.898H109.967z M46.267,74.034v-9.8c0.001-0.902,0.731-1.633,1.633-1.633h62.067
			c0.901,0,1.632,0.731,1.633,1.633v4.141l-12.65,6.136c-0.539,0.267-1.004,0.665-1.351,1.156H47.9
			C46.998,75.666,46.268,74.936,46.267,74.034 M53.476,78.934h43.423V82.2H56.743L53.476,78.934z M46.267,96.9v-9.8
			c0.001-0.902,0.731-1.633,1.633-1.634h49v2.683c0,0.743,0.037,1.481,0.091,2.217h-3.357C92.731,90.367,92,91.098,92,92
			c0,0.902,0.732,1.632,1.633,1.632h3.767c0.306,1.668,0.748,3.307,1.322,4.9H47.9C46.998,98.533,46.268,97.803,46.267,96.9
			 M53.476,101.801h46.63c0.551,1.123,1.165,2.213,1.841,3.266H56.743L53.476,101.801z M111.6,119.768
			c-0.001,0.9-0.731,1.633-1.633,1.633H47.9c-0.902,0-1.632-0.732-1.633-1.633v-9.801c0.001-0.902,0.731-1.633,1.633-1.633h56.432
			c1.6,1.93,3.399,3.684,5.37,5.234l1.897,1.502V119.768z M137.733,88.15c-0.129,8.993-4.394,17.424-11.562,22.858l-6.729,5.324
			c-0.292,0.223-0.695,0.221-0.987,0l-6.729-5.326c-3.901-3.039-7.014-6.973-9.074-11.469l-0.006-0.014
			c-1.626-3.572-2.471-7.449-2.479-11.374V77.752c0.005-0.132,0.086-0.25,0.208-0.302l17.46-8.469
			c0.704-0.338,1.523-0.339,2.229-0.002l17.461,8.471l0.001,0.001c0.121,0.052,0.202,0.168,0.208,0.3V88.15z"/>
		<path fill="#202E61" d="M107.736,98.207h22.692c0.733,0,1.411-0.398,1.769-1.041c0.356-0.643,0.339-1.428-0.049-2.051
			l-11.34-18.328c-0.37-0.596-1.021-0.958-1.722-0.958s-1.353,0.362-1.722,0.958l-11.347,18.328
			c-0.387,0.623-0.405,1.408-0.049,2.049C106.326,97.807,107.002,98.205,107.736,98.207 M119.076,77.854l11.346,18.328h-22.686
			L119.076,77.854z"/>
		<rect x="118.064" y="84.03" fill="#202E61" width="2.025" height="6.076"/>
		<rect x="118.064" y="92.131" fill="#202E61" width="2.025" height="2.025"/>
	</g>
</g>
</svg>
