<?xml version="1.0" encoding="utf-8"?>
<!-- Generator: Adobe Illustrator 16.0.0, SVG Export Plug-In . SVG Version: 6.00 Build 0)  -->
<!DOCTYPE svg PUBLIC "-//W3C//DTD SVG 1.1//EN" "http://www.w3.org/Graphics/SVG/1.1/DTD/svg11.dtd">
<svg version="1.1" id="圖層_1" xmlns="http://www.w3.org/2000/svg" xmlns:xlink="http://www.w3.org/1999/xlink" x="0px" y="0px"
	 width="184px" height="184px" viewBox="0 0 184 184" enable-background="new 0 0 184 184" xml:space="preserve">
<g>
	<path fill="#059A91" d="M131.2,47.2H72.4c-1.544,0-2.8,1.255-2.8,2.8l0.004,14h2.8L72.4,50h11.2v5.6h-7c-0.774,0-1.4,0.625-1.4,1.4
		v7H78v-5.6h5.6v2.8c0,1.544,1.256,2.8,2.8,2.8h30.8c1.544,0,2.8-1.256,2.8-2.8v-2.8h5.6v50.4H113c-0.774,0-1.4,0.626-1.4,1.4V125.6
		H106v2.801h7.087c0.417,0,0.812-0.187,1.079-0.507l13.804-16.669l0.106-0.127c0.002-0.002,0.002-0.003,0.002-0.003l0.001-0.001
		c0.002-0.002,0.002-0.005,0.003-0.007c0.095-0.116,0.164-0.244,0.218-0.38c0.017-0.042,0.022-0.087,0.036-0.131
		c0.027-0.099,0.047-0.2,0.053-0.304c0-0.024,0.012-0.047,0.012-0.072V57c0-0.774-0.626-1.4-1.4-1.4h-7V50h11.2v84H106v2.8h25.2
		c1.544,0,2.8-1.256,2.8-2.8V50C134,48.456,132.744,47.2,131.2,47.2 M114.4,111.6h9.611l-9.611,11.533V111.6z M117.2,61.2H86.4V50
		h30.8V61.2z"/>
	<rect x="110.2" y="54.2" fill="#059A91" width="2.8" height="2.8"/>
	<rect x="90.6" y="54.2" fill="#059A91" width="2.8" height="2.8"/>
	<rect x="100.4" y="54.2" fill="#059A91" width="2.8" height="2.8"/>
	<path fill="#059A91" d="M106,103.2v2.8h15.4c0.774,0,1.399-0.625,1.399-1.4V68.2c0-0.775-0.625-1.4-1.399-1.4H106v2.8h14v5.6h-14
		V78h14v25.2H106z"/>
	<path fill="#059A91" d="M101.8,66.8H51.4c-0.774,0-1.4,0.625-1.4,1.4v67.2c0,0.774,0.625,1.399,1.4,1.399h50.4
		c0.774,0,1.4-0.625,1.4-1.399V68.2C103.2,67.425,102.574,66.8,101.8,66.8 M52.8,69.6H100.4v5.6H52.8V69.6z M52.8,78H100.4v56H52.8
		V78z"/>
	<rect x="58.4" y="111.6" fill="#059A91" width="19.6" height="2.801"/>
	<rect x="80.8" y="111.6" fill="#059A91" width="8.4" height="2.801"/>
	<rect x="92" y="111.6" fill="#059A91" width="2.8" height="2.801"/>
	<rect x="89.2" y="117.2" fill="#059A91" width="2.8" height="2.8"/>
	<rect x="58.4" y="122.8" fill="#059A91" width="19.6" height="2.8"/>
	<rect x="80.8" y="122.8" fill="#059A91" width="8.4" height="2.8"/>
	<rect x="92" y="122.8" fill="#059A91" width="2.8" height="2.8"/>
	<rect x="75.2" y="128.4" fill="#059A91" width="19.6" height="2.8"/>
	<rect x="64" y="128.4" fill="#059A91" width="8.4" height="2.8"/>
	<rect x="58.4" y="128.4" fill="#059A91" width="2.8" height="2.8"/>
	<rect x="58.4" y="117.2" fill="#059A91" width="8.4" height="2.8"/>
	<rect x="69.6" y="117.2" fill="#059A91" width="2.8" height="2.8"/>
	<rect x="75.2" y="117.2" fill="#059A91" width="11.2" height="2.8"/>
	<rect x="55.6" y="71" fill="#059A91" width="2.8" height="2.8"/>
	<rect x="61.2" y="71" fill="#059A91" width="2.8" height="2.8"/>
	<rect x="66.8" y="71" fill="#059A91" width="2.8" height="2.8"/>
	<rect x="92" y="71" fill="#059A91" width="5.6" height="2.8"/>
	<path fill="#059A91" d="M61.2,93.4h5.6v7h2.8v-14c0-1.544-1.256-2.8-2.8-2.8h-5.6c-1.544,0-2.8,1.256-2.8,2.8v14h2.8V93.4z
		 M66.8,90.6h-5.6v-4.2h5.6V90.6z"/>
	<path fill="#059A91" d="M75.2,94.8h5.6c1.544,0,2.8-1.256,2.8-2.8v-5.6c0-1.544-1.256-2.8-2.8-2.8h-5.6c-1.544,0-2.8,1.256-2.8,2.8
		v14h2.8V94.8z M75.2,86.4h5.6l0.003,5.6H75.2V86.4z"/>
	<polygon fill="#059A91" points="86.4,86.4 89.2,86.4 89.2,97.6 86.4,97.6 86.4,100.4 94.8,100.4 94.8,97.6 92,97.6 92,86.4 
		94.8,86.4 94.8,83.6 86.4,83.6 	"/>
</g>
</svg>
