<?xml version="1.0" encoding="utf-8"?>
<!-- Generator: Adobe Illustrator 23.0.6, SVG Export Plug-In . SVG Version: 6.00 Build 0)  -->
<svg version="1.1" id="圖層_2" xmlns="http://www.w3.org/2000/svg" xmlns:xlink="http://www.w3.org/1999/xlink" x="0px" y="0px"
	 viewBox="0 0 190 37" style="enable-background:new 0 0 190 37;" xml:space="preserve">
<style type="text/css">
	.st0{fill:#009D95;}
	.st1{fill:#004097;}
	.st2{fill:#009FE8;}
	.st3{fill:#595757;}
</style>
<g>
	<polygon class="st0" points="51.9,37 26.8,12 26.6,12 17.3,12 13.2,12 19.8,18.7 24,18.7 42.5,37 	"/>
	<polygon class="st1" points="55,32 64.4,32 44.2,12 34.7,12 	"/>
	<path class="st2" d="M54,0H32.3h-9.6l6.6,6.6l9.5,0l14.7,0c4.9,0,7.4,2.2,7.4,6c0,2.3-0.9,4.1-2.8,5.1l5.3,5.2
		c3.2-2.1,5.4-5.4,5.7-9.4c0-0.3,0-0.6,0-0.9C69.1,4.8,63.3,0,54,0z"/>
	<g>
		<path class="st3" d="M83.3,8.2c2.2,0,4.1,0.2,4.1,2.7v0.1c0,2.4-1.7,2.7-3.8,2.7l-0.1,0l3.3,3c0.6,0.5,0.6,1,0.6,1.5h-1.8
			c0-0.3-0.1-0.5-0.2-0.7l-3.6-3.3c-0.4-0.4-0.8-0.6-1.5-0.6H79v4.5h-1.8V8.2H83.3z M79,12.8h4.1c1.4,0,2.3-0.1,2.4-1.7v-0.1
			c0-1.6-0.9-1.7-2.4-1.7H79V12.8z"/>
		<path class="st3" d="M90.8,15.5c0.1,1.4,1,1.8,2.3,1.8c0.7,0,0.3,0,1,0c1,0,2.1-0.2,2.1-0.8h1.8c0,1.5-2,1.8-3.7,1.8
			c-0.9,0-0.6,0-1.5,0c-2.1,0-3.9-0.5-3.9-3v-0.6c0-2.5,1.8-3,3.9-3c0.9,0,0.5,0,1.4,0c2,0,3.8,0.5,3.9,2.7c0.1,0.8-0.3,1.1-1.2,1.1
			H90.8z M90.8,14.5h5.1c0.4,0,0.5,0,0.4-0.4c-0.2-1.1-1-1.4-2.3-1.4c-0.7,0-0.1,0-0.9,0C91.8,12.7,90.9,13.1,90.8,14.5z"/>
		<path class="st3" d="M102,11.7h3.2v1H102v5.6h-1.8v-7.1c0-2.5,1.8-3,3.9-3h1.1v1h-0.9c-1.5,0-2.4,0.4-2.4,2V11.7z"/>
		<path class="st3" d="M108.5,18.3h-1.8V8.2h1.8V18.3z"/>
		<path class="st3" d="M112.3,15.5c0.1,1.4,1,1.8,2.3,1.8c0.7,0,0.3,0,1,0c1,0,2.1-0.2,2.1-0.8h1.8c0,1.5-2,1.8-3.7,1.8
			c-0.9,0-0.6,0-1.5,0c-2.1,0-3.9-0.5-3.9-3v-0.6c0-2.5,1.8-3,3.9-3c0.9,0,0.5,0,1.4,0c2,0,3.8,0.5,3.9,2.7c0.1,0.8-0.3,1.1-1.2,1.1
			H112.3z M112.3,14.5h5.1c0.4,0,0.5,0,0.4-0.4c-0.2-1.1-1-1.4-2.3-1.4c-0.7,0-0.1,0-0.9,0C113.2,12.7,112.3,13.1,112.3,14.5z"/>
		<path class="st3" d="M125.5,17.3h1.1c1,0,2.1-0.2,2.1-0.8h1.8c0,1.5-2,1.8-3.7,1.8h-1.7c-2.1,0-3.9-0.5-3.9-3v-0.6
			c0-2.5,1.8-3,3.9-3h1.7c1.7,0,3.7,0.3,3.7,1.8h-1.8c0-0.6-1.1-0.8-2.1-0.8h-1.1c-1.5,0-2.4,0.4-2.4,2v0.5
			C123.1,16.9,124,17.3,125.5,17.3z"/>
		<path class="st3" d="M131.9,9.9h1.8v1.8h3.2v1h-3.2v3.8c0,0.5,0.2,0.8,0.9,0.8h2.4v1h-2.6c-1.4,0-2.4-0.1-2.4-1.9v-4.7V9.9z"/>
		<path class="st3" d="M138.7,10.8V9h1.8v1.8H138.7z M138.7,11.7h1.8v6.6h-1.8V11.7z"/>
		<path class="st3" d="M142.2,12.2v-0.5h1.8v0.4c0,0.5,0.2,0.8,0.7,1.4l2.2,3.2l2.2-3.2c0.4-0.6,0.7-1,0.7-1.4v-0.4h1.8v0.5
			c0,0.7-0.2,1.2-0.6,1.7l-2.6,3.6c-0.2,0.3-0.7,0.8-1.2,0.8h-0.6c-0.6,0-1-0.5-1.2-0.8l-2.6-3.6C142.4,13.4,142.2,12.9,142.2,12.2z
			"/>
		<path class="st3" d="M154.4,15.5c0.1,1.4,1,1.8,2.3,1.8c0.7,0,0.3,0,1,0c1,0,2.1-0.2,2.1-0.8h1.8c0,1.5-2,1.8-3.7,1.8
			c-0.9,0-0.6,0-1.5,0c-2.1,0-3.9-0.5-3.9-3v-0.6c0-2.5,1.8-3,3.9-3c0.9,0,0.5,0,1.4,0c2,0,3.8,0.5,3.9,2.7c0.1,0.8-0.3,1.1-1.2,1.1
			H154.4z M154.4,14.5h5.1c0.4,0,0.5,0,0.4-0.4c-0.2-1.1-1-1.4-2.3-1.4c-0.7,0-0.1,0-0.9,0C155.3,12.7,154.5,13.1,154.4,14.5z"/>
	</g>
	<g>
		<path class="st3" d="M87.3,22.2v1h-4.2v9.1h-1.8v-9.1h-4.2v-1H87.3z"/>
		<path class="st3" d="M88,29.5c0.1,1.4,1,1.8,2.3,1.8c0.7,0,0.3,0,1,0c1,0,2.1-0.2,2.1-0.8h1.8c0,1.5-2,1.8-3.7,1.8
			c-0.9,0-0.6,0-1.5,0c-2.1,0-3.9-0.5-3.9-3v-0.6c0-2.5,1.8-3,3.9-3c0.9,0,0.5,0,1.4,0c2,0,3.8,0.5,3.9,2.7c0.1,0.8-0.3,1.1-1.2,1.1
			H88z M88,28.5h5.1c0.4,0,0.5,0,0.4-0.4c-0.2-1.1-1-1.4-2.3-1.4c-0.7,0-0.1,0-0.9,0C88.9,26.7,88,27.1,88,28.5z"/>
		<path class="st3" d="M101.2,31.3h1.1c1,0,2.1-0.2,2.1-0.8h1.8c0,1.5-2,1.8-3.7,1.8h-1.7c-2.1,0-3.9-0.5-3.9-3v-0.6
			c0-2.5,1.8-3,3.9-3h1.7c1.7,0,3.7,0.3,3.7,1.8h-1.8c0-0.6-1.1-0.8-2.1-0.8h-1.1c-1.5,0-2.4,0.4-2.4,2v0.5
			C98.8,30.9,99.7,31.3,101.2,31.3z"/>
		<path class="st3" d="M113,26.7h-1c-1.5,0-2.4,0.4-2.4,2v3.6h-1.8V22.2h1.8v3.9c0.6-0.3,1.3-0.4,2.1-0.4h1.6c2.1,0,3.9,0.5,3.9,3
			v3.6h-1.8v-3.6C115.3,27.1,114.5,26.7,113,26.7z"/>
		<path class="st3" d="M124.3,26.7h-1c-1.5,0-2.4,0.4-2.4,2v3.6h-1.8v-6.6h1.8v0.4c0.6-0.3,1.3-0.4,2.1-0.4h1.6c2.1,0,3.9,0.5,3.9,3
			v3.6h-1.8v-3.6C126.6,27.1,125.8,26.7,124.3,26.7z"/>
		<path class="st3" d="M130.2,29.3v-0.6c0-2.5,1.8-3,3.9-3h1.6c2.1,0,3.9,0.5,3.9,3v0.6c0,2.5-1.8,3-3.9,3h-1.6
			C132.1,32.3,130.2,31.8,130.2,29.3z M134.4,31.3h1c1.5,0,2.4-0.4,2.4-2v-0.5c0-1.6-0.9-2-2.4-2h-1c-1.5,0-2.4,0.4-2.4,2v0.5
			C132.1,30.9,132.9,31.3,134.4,31.3z"/>
		<path class="st3" d="M143.4,32.3h-1.8V22.2h1.8V32.3z"/>
		<path class="st3" d="M145.3,29.3v-0.6c0-2.5,1.8-3,3.9-3h1.6c2.1,0,3.9,0.5,3.9,3v0.6c0,2.5-1.8,3-3.9,3h-1.6
			C147.1,32.3,145.3,31.8,145.3,29.3z M149.4,31.3h1c1.5,0,2.4-0.4,2.4-2v-0.5c0-1.6-0.9-2-2.4-2h-1c-1.5,0-2.4,0.4-2.4,2v0.5
			C147.1,30.9,148,31.3,149.4,31.3z"/>
		<path class="st3" d="M161.5,34.8c1.5,0,2.4-0.4,2.4-2c0-0.4,0,0,0-0.9c-0.6,0.3-1.3,0.4-2.1,0.4h-1.6c-2.1,0-3.9-0.5-3.9-3v-0.6
			c0-2.5,1.8-3,3.9-3h1.6c2.1,0,3.9,0.5,3.9,3c0,1.4,0,3.7,0,4.1c0,2.5-1.8,3-3.9,3h-1.3v-1H161.5z M160.5,31.3h1
			c1.5,0,2.4-0.4,2.4-2v-0.5c0-1.6-0.9-2-2.4-2h-1c-1.5,0-2.4,0.4-2.4,2v0.5C158.1,30.9,159,31.3,160.5,31.3z"/>
		<path class="st3" d="M171.6,31.3h1c1.5,0,2.4-0.4,2.4-2v-3.6h1.8v7.1c0,2.5-1.8,3-3.9,3h-1.3v-1h1c1.5,0,2.4-0.4,2.4-2.1
			c0-0.4,0,0,0-0.9c-0.6,0.3-1.3,0.4-2.1,0.4h-1.6c-2.1,0-3.9-0.5-3.9-3v-3.6h1.8v3.6C169.3,30.9,170.2,31.3,171.6,31.3z"/>
	</g>
</g>
</svg>
