<?xml version="1.0" encoding="utf-8"?>
<!-- Generator: Adobe Illustrator 16.0.0, SVG Export Plug-In . SVG Version: 6.00 Build 0)  -->
<!DOCTYPE svg PUBLIC "-//W3C//DTD SVG 1.1//EN" "http://www.w3.org/Graphics/SVG/1.1/DTD/svg11.dtd">
<svg version="1.1" id="圖層_1" xmlns="http://www.w3.org/2000/svg" xmlns:xlink="http://www.w3.org/1999/xlink" x="0px" y="0px"
	 width="20px" height="20px" viewBox="0 0 20 20" enable-background="new 0 0 20 20" xml:space="preserve">
<path fill="#FFFFFF" d="M10,1c-4.963,0-9,4.038-9,9c0,4.963,4.037,9,9,9s9-4.037,9-9C19,5.038,14.963,1,10,1 M14.172,10.065
	l-0.881,0.48v1.07l1.122,0.692l0.561,1.201v1.442l0.93,0.442C14.439,16.994,12.335,18,10,18c-4.411,0-8-3.588-8-8
	c0-0.936,0.162-1.834,0.458-2.669L2.88,7.822l0.48,0.721l0.32-1.282l0.561,0.561l0.32,1.202h1.922v0.881l0.4,1.122l0.641,1.041
	l-0.401,2.243l0.16,2.002l0.915,0.32v-1.281l2.129-2.483l0.801-1.683l-0.561-1.281H9.367L8.199,8.463L6.764,8.704l-0.601-0.32
	l-0.881-0.4l-0.32-0.721l0.16-0.721h0.961l0.481,0.721h0.48V6.221l1.155-1.042V4.378l0.688-0.801l0.881-1.201L8.92,2.073
	C9.273,2.025,9.634,2,10,2c1.873,0,3.598,0.647,4.961,1.729l-0.067,1.291l-0.24,1.282v1.121l-0.24,0.48l-0.49-0.49l0.45-0.172
	l-0.158-0.655l-0.656,0.354L13.187,7.63l0.104,0.318L13.36,7.88l0.411,0.343l-0.48,0.32v1.041l0.562-0.36l0.561-0.16l0.721-0.521
	l0.32,1.041l0.32-1.041h0.881v1.521H14.172z"/>
</svg>
