<?xml version="1.0" encoding="utf-8"?>
<!-- Generator: Adobe Illustrator 16.0.0, SVG Export Plug-In . SVG Version: 6.00 Build 0)  -->
<!DOCTYPE svg PUBLIC "-//W3C//DTD SVG 1.1//EN" "http://www.w3.org/Graphics/SVG/1.1/DTD/svg11.dtd">
<svg version="1.1" id="圖層_1" xmlns="http://www.w3.org/2000/svg" xmlns:xlink="http://www.w3.org/1999/xlink" x="0px" y="0px"
	 width="32px" height="32px" viewBox="0 0 32 32" enable-background="new 0 0 32 32" xml:space="preserve">
<path fill="#FFFFFF" d="M30,16.084c0-7.731-6.268-14-14-14c-7.732,0-14,6.269-14,14c0,6.988,5.12,12.781,11.813,13.83v-9.783h-3.555
	v-4.045h3.555V13c0-3.509,2.09-5.447,5.287-5.447c1.533,0,3.135,0.274,3.135,0.274v3.445h-1.766c-1.738,0-2.281,1.08-2.281,2.187
	v2.626h3.883l-0.619,4.047h-3.264v9.783C24.881,28.865,30,23.072,30,16.084"/>
</svg>
