<?xml version="1.0" encoding="utf-8"?>
<!-- Generator: Adobe Illustrator 16.0.0, SVG Export Plug-In . SVG Version: 6.00 Build 0)  -->
<!DOCTYPE svg PUBLIC "-//W3C//DTD SVG 1.1//EN" "http://www.w3.org/Graphics/SVG/1.1/DTD/svg11.dtd">
<svg version="1.1" id="圖層_1" xmlns="http://www.w3.org/2000/svg" xmlns:xlink="http://www.w3.org/1999/xlink" x="0px" y="0px"
	 width="210.14px" height="286.495px" viewBox="0 0 210.14 286.495" enable-background="new 0 0 210.14 286.495"
	 xml:space="preserve">
<g>
	<path fill="#FFFFFF" d="M160.64,105c0,30.652-24.849,55.5-55.5,55.5c-30.651,0-55.5-24.848-55.5-55.5
		c0-30.651,24.849-55.5,55.5-55.5C135.791,49.5,160.64,74.349,160.64,105"/>
	<path fill="#FD3018" d="M105.14,0C49.417,0,3.319,43.639,0.155,99.536c-1.099,24.946,3.428,39.772,20.947,68.849
		c8.423,14.354,20.449,32.827,37.266,58.594c9.712,14.868,21.021,32.211,34.16,52.631c2.754,4.292,7.515,6.886,12.612,6.886
		c5.112,0,9.858-2.594,12.612-6.886c15.63-24.301,28.563-44.149,39.302-60.586c16.86-25.839,28.301-43.388,36.167-56.864
		c12.07-21.475,16.26-34.38,16.436-49.058c0.41-2.564,0.483-5.113,0.483-8.102C210.14,47.109,163.03,0,105.14,0 M105.14,150
		c-24.853,0-45-20.146-45-45c0-24.853,20.147-45,45-45c24.854,0,45,20.147,45,45C150.14,129.854,129.993,150,105.14,150"/>
	<path fill="#E61E14" d="M150.14,105c0,24.854-20.146,45-45,45v136.494c5.112,0,9.858-2.594,12.612-6.886
		c15.63-24.301,28.563-44.149,39.302-60.586c16.86-25.839,28.301-43.388,36.167-56.865c12.07-21.474,16.26-34.379,16.436-49.057
		c0.41-2.564,0.483-5.113,0.483-8.102C210.14,47.109,163.03,0,105.14,0v60C129.993,60,150.14,80.146,150.14,105"/>
</g>
</svg>
