<?xml version="1.0" encoding="utf-8"?>
<!-- Generator: Adobe Illustrator 16.0.0, SVG Export Plug-In . SVG Version: 6.00 Build 0)  -->
<!DOCTYPE svg PUBLIC "-//W3C//DTD SVG 1.1//EN" "http://www.w3.org/Graphics/SVG/1.1/DTD/svg11.dtd">
<svg version="1.1" id="圖層_1" xmlns="http://www.w3.org/2000/svg" xmlns:xlink="http://www.w3.org/1999/xlink" x="0px" y="0px"
	 width="328.49px" height="98.585px" viewBox="0 0 328.49 98.585" enable-background="new 0 0 328.49 98.585" xml:space="preserve">
<g>
	<defs>
		<rect id="SVGID_1_" width="328.49" height="98.585"/>
	</defs>
	<clipPath id="SVGID_2_">
		<use xlink:href="#SVGID_1_"  overflow="visible"/>
	</clipPath>
	<path clip-path="url(#SVGID_2_)" fill="#0089CF" d="M27.754,19.558C39.952,7.358,58.555,5.469,72.739,13.885l4.905-4.903
		C69.623,3.33,59.85,0,49.292,0C22.068,0,0,22.069,0,49.292C0,59.85,3.329,69.624,8.982,77.644l13.099-13.1
		C13.665,50.359,15.555,31.755,27.754,19.558"/>
	<path clip-path="url(#SVGID_2_)" fill="#0089CF" d="M84.751,25.326c9.497,14.352,7.926,33.871-4.716,46.513
		C67.395,84.48,47.875,86.052,33.522,76.555L20.667,89.409c8.071,5.77,17.947,9.176,28.625,9.176
		c27.224,0,49.293-22.07,49.293-49.292c0-10.678-3.406-20.554-9.176-28.625L84.751,25.326z"/>
	<path clip-path="url(#SVGID_2_)" fill="#034EA2" d="M54.024,63.296c-9.704,0-17.599-7.894-17.599-17.598
		c0-9.704,7.895-17.597,17.599-17.597c5.25,0,9.956,2.322,13.184,5.979h10.593C73.486,25.285,64.463,19.2,54.024,19.2
		c-14.611,0-26.498,11.887-26.498,26.498s11.887,26.498,26.498,26.498c10.439,0,19.462-6.084,23.777-14.88H67.208
		C63.98,60.973,59.274,63.296,54.024,63.296"/>
	<path clip-path="url(#SVGID_2_)" fill="#034EA2" d="M76.763,49.293h-20.6c-1.924,0-3.5-1.575-3.5-3.5v-1.045
		c0-1.925,1.576-3.5,3.5-3.5h20.6c1.925,0,3.5,1.575,3.5,3.5v1.045C80.263,47.718,78.688,49.293,76.763,49.293"/>
	<path clip-path="url(#SVGID_2_)" fill="#FFFFFF" d="M138.276,23.888c-0.107-0.055-0.269-0.162-0.376-0.162h-7.727h-7.313h-0.16
		c-1.543,0-2.793,1.251-2.793,2.793c0,0.047,0.012,0.091,0.014,0.137c-0.004,0.026-0.014,0.055-0.014,0.078v35.933
		c0,0.159,0.053,0.269,0.107,0.376l2.471,2.471c0.106,0.106,0.269,0.161,0.375,0.161h7.493h7.547h0.188
		c1.527,0,2.765-1.238,2.765-2.767c0-0.032-0.008-0.062-0.009-0.094c0.005-0.046,0.009-0.091,0.009-0.147v-8.648
		c0-0.107-0.053-0.215-0.159-0.215h-5.157c-0.108,0-0.215,0.107-0.215,0.215v5.801c0,0.161-0.109,0.323-0.322,0.323h-4.647h-4.592
		c-0.162,0-0.323-0.162-0.323-0.323V29.634c0-0.215,0.161-0.322,0.323-0.322h4.412H135c0.213,0,0.322,0.107,0.322,0.322v5.747
		c0,0.108,0.107,0.215,0.215,0.215h5.157c0.106,0,0.159-0.107,0.159-0.215v-8.647c0-0.108,0-0.269-0.106-0.375L138.276,23.888z"/>
	<path clip-path="url(#SVGID_2_)" fill="#FFFFFF" d="M164.436,32.91h-5.103c-0.107,0-0.215,0.107-0.215,0.215v26.749
		c0,0.161-0.161,0.321-0.322,0.321h-6.5c-0.161,0-0.322-0.16-0.322-0.321V33.125c0-0.108-0.107-0.215-0.214-0.215h-5.103
		c-0.107,0-0.214,0.107-0.214,0.215V62.72c0,0.162,0.053,0.269,0.161,0.376l2.471,2.471c0.107,0.108,0.215,0.161,0.376,0.161h9.345
		c0.161,0,0.322,0.161,0.322,0.323v2.9c0,0.214-0.161,0.321-0.322,0.321h-2.366h-9.773c-0.107,0-0.214,0.108-0.214,0.216v5.156
		c0,0.107,0.107,0.215,0.214,0.215h9.773h5.267h0.16c1.543,0,2.792-1.251,2.792-2.794c0-0.051-0.012-0.096-0.015-0.146
		c0.004-0.022,0.015-0.049,0.015-0.069V33.125C164.649,33.017,164.543,32.91,164.436,32.91"/>
	<path clip-path="url(#SVGID_2_)" fill="#FFFFFF" d="M185.815,33.071c-0.108-0.106-0.215-0.161-0.322-0.161h-9.4
		c-0.161,0-0.321-0.108-0.321-0.322v-8.594c0-0.107-0.108-0.215-0.216-0.215h-5.103c-0.106,0-0.213,0.108-0.213,0.215V62.72
		c0,0.162,0.052,0.269,0.161,0.376l2.47,2.471c0.107,0.107,0.214,0.161,0.322,0.161h7.569h4.73h0.188
		c1.527,0,2.767-1.238,2.767-2.767c0-0.054-0.014-0.104-0.017-0.158c0.004-0.028,0.017-0.051,0.017-0.083V35.918
		c0-0.161-0.054-0.269-0.162-0.376L185.815,33.071z M180.763,60.195h-4.67c-0.161,0-0.321-0.16-0.321-0.321v-21.11
		c0-0.16,0.16-0.321,0.321-0.321h6.5c0.161,0,0.321,0.161,0.321,0.321v21.11c0,0.161-0.16,0.321-0.321,0.321H180.763z"/>
	<path clip-path="url(#SVGID_2_)" fill="#FFFFFF" d="M209.611,33.072c-0.106-0.107-0.214-0.162-0.32-0.162h-7.476h-4.826h-0.188
		c-1.527,0-2.765,1.239-2.765,2.767c0,0.054,0.012,0.105,0.015,0.158c-0.004,0.029-0.015,0.051-0.015,0.083V62.72
		c0,0.162,0.052,0.269,0.16,0.376l2.472,2.471c0.106,0.108,0.213,0.161,0.32,0.161h7.971h4.331h0.187
		c1.528,0,2.767-1.238,2.767-2.767c0-0.054-0.014-0.104-0.017-0.158c0.004-0.028,0.017-0.051,0.017-0.083v-5.908
		c0-0.106-0.107-0.214-0.215-0.214h-5.103c-0.107,0-0.215,0.107-0.215,0.214v3.063c0,0.16-0.161,0.321-0.322,0.321h-1.43h-5.07
		c-0.161,0-0.322-0.161-0.322-0.321v-9.185c0-0.216,0.161-0.323,0.322-0.323h5.22h4.182h0.146c1.551,0,2.808-1.256,2.808-2.807
		c0-0.045-0.012-0.087-0.014-0.132c0.003-0.023,0.014-0.042,0.014-0.069V35.917c0-0.161-0.054-0.268-0.161-0.376L209.611,33.072z
		 M199.567,44.513v-5.748c0-0.16,0.161-0.321,0.322-0.321h1.926h4.574c0.161,0,0.322,0.161,0.322,0.321v5.748
		c0,0.13-0.113,0.209-0.24,0.24h-1.362c-0.095,0-0.184,0.019-0.274,0.029h-4.945C199.729,44.782,199.567,44.673,199.567,44.513"/>
	<path clip-path="url(#SVGID_2_)" fill="#FFFFFF" d="M233.087,32.91h-8.593h-3.653H220.6c-1.528,0-2.767,1.238-2.767,2.767
		c0,0.053,0.013,0.104,0.017,0.158c-0.005,0.028-0.017,0.051-0.017,0.083v29.596c0,0.106,0.107,0.214,0.214,0.214h5.157
		c0.108,0,0.214-0.107,0.214-0.214v-26.75c0-0.16,0.107-0.321,0.27-0.321h0.807h8.593c0.107,0,0.214-0.054,0.214-0.216v-5.102
		C233.301,33.017,233.194,32.91,233.087,32.91"/>
	<path clip-path="url(#SVGID_2_)" fill="#FFFFFF" d="M256.884,23.833h-9.071h-5.969h-0.188c-1.527,0-2.766,1.238-2.766,2.767
		c0,0.043,0.012,0.084,0.014,0.127c-0.003,0.019-0.014,0.043-0.014,0.059V62.72c0,0.162,0.054,0.269,0.161,0.376l2.472,2.471
		c0.052,0.108,0.214,0.161,0.32,0.161h15.04c0.161,0,0.214-0.107,0.214-0.214v-5.103c0-0.107-0.053-0.216-0.214-0.216h-12.14
		c-0.161,0-0.322-0.16-0.322-0.321V47.895c0-0.161,0.161-0.322,0.322-0.322h12.14c0.161,0,0.214-0.107,0.214-0.215v-5.102
		c0-0.161-0.053-0.214-0.214-0.214h-12.14c-0.161,0-0.322-0.161-0.322-0.323V29.687c0-0.214,0.161-0.322,0.322-0.322h3.068h9.071
		c0.161,0,0.214-0.108,0.214-0.215v-5.156C257.098,23.888,257.045,23.833,256.884,23.833"/>
	<path clip-path="url(#SVGID_2_)" fill="#FFFFFF" d="M280.681,32.91h-5.104c-0.106,0-0.213,0.107-0.213,0.215v26.749
		c0,0.161-0.162,0.321-0.323,0.321h-6.5c-0.161,0-0.322-0.16-0.322-0.321V33.125c0-0.108-0.106-0.215-0.215-0.215h-5.102
		c-0.108,0-0.215,0.107-0.215,0.215V62.72c0,0.162,0.054,0.269,0.161,0.376l2.472,2.471c0.106,0.108,0.214,0.161,0.376,0.161h9.345
		c0.161,0,0.323,0.161,0.323,0.323v2.9c0,0.214-0.162,0.321-0.323,0.321h-1.298h-10.841c-0.108,0-0.215,0.108-0.215,0.216v5.156
		c0,0.107,0.106,0.215,0.215,0.215h10.841h4.199h0.159c1.542,0,2.793-1.251,2.793-2.794c0-0.051-0.012-0.096-0.015-0.146
		c0.004-0.022,0.015-0.049,0.015-0.069V33.125C280.895,33.017,280.787,32.91,280.681,32.91"/>
	<path clip-path="url(#SVGID_2_)" fill="#FFFFFF" d="M302.061,33.071c-0.106-0.106-0.214-0.161-0.32-0.161h-6.471h-5.831h-0.186
		c-1.529,0-2.768,1.238-2.768,2.767c0,0.053,0.014,0.104,0.017,0.158c-0.004,0.028-0.017,0.05-0.017,0.083v26.801
		c0,0.163,0.054,0.27,0.161,0.376l2.472,2.472c0.106,0.108,0.215,0.161,0.32,0.161h7.82h4.481h0.187
		c1.528,0,2.766-1.238,2.766-2.767c0-0.054-0.013-0.104-0.016-0.159c0.004-0.027,0.016-0.05,0.016-0.083v-5.907
		c0-0.106-0.105-0.215-0.214-0.215h-5.102c-0.108,0-0.216,0.108-0.216,0.215v3.063c0,0.161-0.16,0.321-0.322,0.321h-1.58h-4.92
		c-0.161,0-0.322-0.16-0.322-0.321v-9.185c0-0.216,0.161-0.323,0.322-0.323h4.144h5.258h0.16c1.542,0,2.792-1.25,2.792-2.792
		c0-0.049-0.012-0.094-0.014-0.142c0.003-0.025,0.014-0.045,0.014-0.074v-11.44c0-0.161-0.053-0.269-0.16-0.376L302.061,33.071z
		 M296.482,44.781h-4.144c-0.161,0-0.322-0.108-0.322-0.269v-5.748c0-0.16,0.161-0.321,0.322-0.321h2.931h3.569
		c0.162,0,0.322,0.161,0.322,0.321v5.748c0,0.161-0.16,0.269-0.322,0.269H296.482z"/>
	<path clip-path="url(#SVGID_2_)" fill="#FFFFFF" d="M323.173,42.042h5.104c0.106,0,0.213-0.108,0.213-0.216v-5.908
		c0-0.161-0.052-0.269-0.161-0.376l-2.47-2.471c-0.108-0.106-0.214-0.161-0.322-0.161h-7.712h-4.589h-0.187
		c-1.527,0-2.767,1.238-2.767,2.767c0,0.053,0.013,0.104,0.016,0.158c-0.004,0.028-0.016,0.051-0.016,0.083v10.099
		c0,0.106,0.053,0.268,0.162,0.321l12.245,8.756c0.161,0.16,0.268,0.321,0.268,0.537v4.243c0,0.161-0.16,0.321-0.321,0.321h-1.029
		h-5.471c-0.16,0-0.321-0.16-0.321-0.321v-3.063c0-0.106-0.108-0.214-0.215-0.214h-5.104c-0.105,0-0.214,0.107-0.214,0.214v5.908
		c0,0.162,0.053,0.269,0.162,0.376l2.47,2.471c0.108,0.108,0.214,0.161,0.321,0.161h8.371h3.93h0.188
		c1.526,0,2.765-1.238,2.765-2.767c0-0.054-0.012-0.104-0.015-0.158c0.004-0.028,0.015-0.051,0.015-0.083V52.676
		c0-0.161-0.052-0.269-0.161-0.376l-12.246-8.754c-0.16-0.108-0.268-0.269-0.268-0.484v-4.297c0-0.161,0.161-0.322,0.321-0.322
		h1.688h4.812c0.161,0,0.321,0.161,0.321,0.322v3.061C322.957,41.934,323.066,42.042,323.173,42.042"/>
</g>
</svg>
