<?xml version="1.0" encoding="utf-8"?>
<!-- Generator: Adobe Illustrator 23.0.6, SVG Export Plug-In . SVG Version: 6.00 Build 0)  -->
<svg version="1.1" id="圖層_1" xmlns="http://www.w3.org/2000/svg" xmlns:xlink="http://www.w3.org/1999/xlink" x="0px" y="0px"
	 viewBox="0 0 61.8 61.8" style="enable-background:new 0 0 61.8 61.8;" xml:space="preserve">
<style type="text/css">
	.st0{fill:#00A0E9;}
</style>
<g>
	<g>
		<path class="st0" d="M23.9,29.6H22v-1.1h5.1v1.1h-1.9v5.6h-1.3V29.6z"/>
	</g>
	<g>
		<path class="st0" d="M27.6,31.8c0-2.2,1.2-3.5,3-3.5s3,1.3,3,3.5s-1.2,3.5-3,3.5S27.6,33.9,27.6,31.8z M32.3,31.8
			c0-1.4-0.6-2.3-1.6-2.3c-1,0-1.6,0.9-1.6,2.3c0,1.4,0.6,2.4,1.6,2.4C31.6,34.1,32.3,33.2,32.3,31.8z"/>
	</g>
	<g>
		<path class="st0" d="M35,28.4h2.2c1.5,0,2.6,0.5,2.6,2.1c0,1.5-1.2,2.2-2.6,2.2h-0.9v2.4H35V28.4z M37.1,31.7
			c0.9,0,1.4-0.4,1.4-1.2c0-0.8-0.5-1-1.4-1h-0.8v2.2C36.3,31.7,37.1,31.7,37.1,31.7z"/>
	</g>
</g>
<g>
	<g>
		<path class="st0" d="M30.9,61.8C13.9,61.8,0,48,0,30.9S13.9,0,30.9,0s30.9,13.9,30.9,30.9S48,61.8,30.9,61.8z M30.9,2
			C15,2,2,15,2,30.9c0,15.9,13,28.9,28.9,28.9s28.9-13,28.9-28.9C59.8,15,46.8,2,30.9,2z"/>
	</g>
	<g>
		<polygon class="st0" points="36.7,19.5 30.9,13.7 25.2,19.5 24.6,19 30.9,12.7 37.2,19 		"/>
	</g>
</g>
</svg>
